<svg width="199" height="148" viewBox="0 0 199 148" fill="none" xmlns="http://www.w3.org/2000/svg">
<path d="M72.4296 73.6184C73.9464 71.2248 75.5428 68.8216 77.1857 66.4749L77.1999 66.4551L78.9433 63.8369L81.5181 60.5348L81.5342 60.5135C82.4955 59.247 83.4928 57.9687 84.4986 56.7139L86.2705 54.4487C88.6291 51.4261 90.5251 49.2218 93.5161 46.0276C95.1277 44.3083 96.6559 42.7989 99.0771 40.4566L99.0828 40.4522L99.2022 40.3355L99.2487 40.2893C100.232 39.3192 101.224 38.363 102.198 37.4473L102.23 37.4164L102.249 37.3981C104.508 35.2326 106.811 33.0591 109.093 30.9407L110 30.0983V17.6567H108.359C107.484 17.0197 106.59 16.3872 105.697 15.7716C98.4618 10.8023 91.2465 6.90358 84.2465 4.19293C77.0691 1.41036 70.4406 0 64.5469 0C60.3387 0 56.578 0.729397 53.369 2.16691C50.2832 3.54939 47.6904 5.60916 45.6607 8.28973C43.759 10.8015 42.3579 13.8585 41.4942 17.3749C39.8314 24.153 40.1917 32.6379 42.537 41.9088C42.8328 43.0755 43.1589 44.2569 43.5087 45.431C41.6374 45.8713 39.82 46.3248 38.0928 46.7907C26.7869 49.8419 17.3314 53.8286 10.7504 58.3216C7.33757 60.6485 4.69832 63.1082 2.89237 65.6318C0.973603 68.3153 0 71.0677 0 73.8129C0 79.3164 3.93897 84.8933 11.3903 89.9521C18.4055 94.7166 28.3264 98.8765 40.0722 101.986C41.1634 102.273 42.2735 102.552 43.3902 102.819C42.9997 104.134 42.6385 105.46 42.3133 106.781C40.0798 115.886 39.8191 124.218 41.5549 130.875C42.4565 134.324 43.8879 137.325 45.8105 139.796C47.8544 142.423 50.4491 144.451 53.5216 145.823C56.759 147.268 60.5691 148 64.8455 148C70.6682 148 77.1781 146.664 84.1953 144.028C91.074 141.444 98.0959 137.744 105.064 133.029C106.138 132.303 107.244 131.525 108.35 130.715H110V117.919L109.399 117.346L109.115 117.077L97.3432 105.828C95.2206 103.8 91.821 100.046 87.7683 95.2611C84.5451 91.4571 82.1978 88.4023 81.0849 86.9229L80.9635 86.7608C79.0211 84.1683 77.5782 82.0799 76.4197 80.4031C74.9693 78.3023 73.5387 76.1566 72.1622 74.0191L72.4144 73.6397L72.4296 73.6184ZM64.764 60.9318C63.4813 58.3855 62.3068 55.859 61.2564 53.3876C64.5336 52.8644 67.9408 52.3947 71.4304 51.9853C70.2662 53.461 69.1229 54.9506 68.0175 56.435C66.9122 57.9195 65.8258 59.4209 64.764 60.9318ZM61.1379 94.8406C62.2233 92.2826 63.4425 89.663 64.7773 87.0191C65.8476 88.538 66.9454 90.0497 68.0555 91.5341C69.2187 93.0891 70.4255 94.6513 71.6532 96.1996C68.0071 95.8092 64.4843 95.3528 61.1379 94.8406ZM55.2877 20.6374C56.1409 16.1069 58.0502 12.8686 60.5368 11.754C61.5692 11.291 62.9391 11.0569 64.6066 11.0569C68.2536 11.0569 72.9718 12.1649 78.2494 14.2614C83.9696 16.5362 90.1724 19.9197 96.1875 24.0539C96.5604 24.3103 96.9418 24.5767 97.3318 24.8531C92.041 29.3813 86.8269 34.413 81.8148 39.8299C73.2752 40.4756 65.0655 41.4399 57.379 42.6998C57.1013 41.7576 56.8406 40.8103 56.6017 39.8747L56.5789 39.7778C54.7464 32.5308 54.2999 25.909 55.2877 20.6374ZM56.3599 73.9846C52.748 80.1485 49.6784 86.2508 47.224 92.1432C46.3708 91.9377 45.528 91.7235 44.6975 91.5048C34.9331 88.9211 26.8001 85.586 21.1794 81.8605C16.8783 79.0096 14.3111 76.0025 14.3111 73.8158C14.3111 71.5711 16.8792 68.6792 21.3586 65.8761C26.5726 62.6129 33.9927 59.6307 42.8015 57.254C44.2984 56.8518 45.8228 56.4666 47.352 56.1063C49.7722 61.9129 52.8011 67.9197 56.359 73.9839L56.3599 73.9846ZM56.3713 108.834C56.6424 107.733 56.9401 106.626 57.2653 105.525C64.8493 106.727 73.1529 107.632 81.9845 108.219C87.045 113.674 92.3026 118.74 97.6314 123.294C96.9734 123.763 96.3098 124.225 95.65 124.673C87.9361 129.893 80.189 133.666 73.2505 135.586L73.1064 135.625C69.997 136.475 67.2203 136.906 64.8588 136.906C63.1164 136.906 61.7095 136.672 60.6771 136.212C58.164 135.09 56.2082 131.922 55.3114 127.52C54.2629 122.39 54.6298 115.928 56.3703 108.833L56.3713 108.834Z" fill="#41E0FD"/>
<path d="M156.09 76.2C161.19 86.9667 167.65 96.3733 175.47 104.42C183.29 112.467 191.053 117.68 198.76 120.06C198.76 124.82 197.513 128.503 195.02 131.11C192.527 133.717 188.957 135.02 184.31 135.02C178.303 135.02 171.447 131.167 163.74 123.46C156.033 115.64 149.29 106.46 143.51 95.92C137.843 85.2667 134.5 75.9167 133.48 67.87C141.64 67.87 148.327 65.7167 153.54 61.41C158.867 56.99 161.53 50.7567 161.53 42.71C161.53 32.51 155.183 27.41 142.49 27.41C138.41 27.41 133.423 28.09 127.53 29.45C126.737 44.75 126.34 57.1033 126.34 66.51C126.34 96.6567 127.53 118.473 129.91 131.96C126.283 133.32 122.43 134 118.35 134C114.27 134 110.7 132.697 107.64 130.09C104.693 127.483 103.22 124.027 103.22 119.72C103.22 115.413 103.787 107.933 104.92 97.28C106.053 86.5133 106.62 77.9 106.62 71.44C106.62 51.6067 105.203 33.9833 102.37 18.57C117.67 14.3767 132.233 12.28 146.06 12.28C171.333 12.28 183.97 21.29 183.97 39.31C183.97 47.2433 181.25 54.7233 175.81 61.75C170.483 68.6633 163.91 73.48 156.09 76.2Z" fill="#41E0FD"/>
<path d="M72.4296 73.6184C73.9464 71.2248 75.5428 68.8216 77.1857 66.4749L77.1999 66.4551L78.9433 63.8369L81.5181 60.5348L81.5342 60.5135C82.4955 59.247 83.4928 57.9687 84.4986 56.7139L86.2705 54.4487C88.6291 51.4261 90.5251 49.2218 93.5161 46.0276C95.1277 44.3083 96.6559 42.7989 99.0771 40.4566L99.0828 40.4522L99.2022 40.3355L99.2487 40.2893C100.232 39.3192 101.224 38.363 102.198 37.4473L102.23 37.4164L102.249 37.3981C104.508 35.2326 106.811 33.0591 109.093 30.9407L110 30.0983V17.6567H108.359C107.484 17.0197 106.59 16.3872 105.697 15.7716C98.4618 10.8023 91.2465 6.90358 84.2465 4.19293C77.0691 1.41036 70.4406 0 64.5469 0C60.3387 0 56.578 0.729397 53.369 2.16691C50.2832 3.54939 47.6904 5.60916 45.6607 8.28973C43.759 10.8015 42.3579 13.8585 41.4942 17.3749C39.8314 24.153 40.1917 32.6379 42.537 41.9088C42.8328 43.0755 43.1589 44.2569 43.5087 45.431C41.6374 45.8713 39.82 46.3248 38.0928 46.7907C26.7869 49.8419 17.3314 53.8286 10.7504 58.3216C7.33757 60.6485 4.69832 63.1082 2.89237 65.6318C0.973603 68.3153 0 71.0677 0 73.8129C0 79.3164 3.93897 84.8933 11.3903 89.9521C18.4055 94.7166 28.3264 98.8765 40.0722 101.986C41.1634 102.273 42.2735 102.552 43.3902 102.819C42.9997 104.134 42.6385 105.46 42.3133 106.781C40.0798 115.886 39.8191 124.218 41.5549 130.875C42.4565 134.324 43.8879 137.325 45.8105 139.796C47.8544 142.423 50.4491 144.451 53.5216 145.823C56.759 147.268 60.5691 148 64.8455 148C70.6682 148 77.1781 146.664 84.1953 144.028C91.074 141.444 98.0959 137.744 105.064 133.029C106.138 132.303 107.244 131.525 108.35 130.715H110V117.919L109.399 117.346L109.115 117.077L97.3432 105.828C95.2206 103.8 91.821 100.046 87.7683 95.2611C84.5451 91.4571 82.1978 88.4023 81.0849 86.9229L80.9635 86.7608C79.0211 84.1683 77.5782 82.0799 76.4197 80.4031C74.9693 78.3023 73.5387 76.1566 72.1622 74.0191L72.4144 73.6397L72.4296 73.6184ZM64.764 60.9318C63.4813 58.3855 62.3068 55.859 61.2564 53.3876C64.5336 52.8644 67.9408 52.3947 71.4304 51.9853C70.2662 53.461 69.1229 54.9506 68.0175 56.435C66.9122 57.9195 65.8258 59.4209 64.764 60.9318ZM61.1379 94.8406C62.2233 92.2826 63.4425 89.663 64.7773 87.0191C65.8476 88.538 66.9454 90.0497 68.0555 91.5341C69.2187 93.0891 70.4255 94.6513 71.6532 96.1996C68.0071 95.8092 64.4843 95.3528 61.1379 94.8406ZM55.2877 20.6374C56.1409 16.1069 58.0502 12.8686 60.5368 11.754C61.5692 11.291 62.9391 11.0569 64.6066 11.0569C68.2536 11.0569 72.9718 12.1649 78.2494 14.2614C83.9696 16.5362 90.1724 19.9197 96.1875 24.0539C96.5604 24.3103 96.9418 24.5767 97.3318 24.8531C92.041 29.3813 86.8269 34.413 81.8148 39.8299C73.2752 40.4756 65.0655 41.4399 57.379 42.6998C57.1013 41.7576 56.8406 40.8103 56.6017 39.8747L56.5789 39.7778C54.7464 32.5308 54.2999 25.909 55.2877 20.6374ZM56.3599 73.9846C52.748 80.1485 49.6784 86.2508 47.224 92.1432C46.3708 91.9377 45.528 91.7235 44.6975 91.5048C34.9331 88.9211 26.8001 85.586 21.1794 81.8605C16.8783 79.0096 14.3111 76.0025 14.3111 73.8158C14.3111 71.5711 16.8792 68.6792 21.3586 65.8761C26.5726 62.6129 33.9927 59.6307 42.8015 57.254C44.2984 56.8518 45.8228 56.4666 47.352 56.1063C49.7722 61.9129 52.8011 67.9197 56.359 73.9839L56.3599 73.9846ZM56.3713 108.834C56.6424 107.733 56.9401 106.626 57.2653 105.525C64.8493 106.727 73.1529 107.632 81.9845 108.219C87.045 113.674 92.3026 118.74 97.6314 123.294C96.9734 123.763 96.3098 124.225 95.65 124.673C87.9361 129.893 80.189 133.666 73.2505 135.586L73.1064 135.625C69.997 136.475 67.2203 136.906 64.8588 136.906C63.1164 136.906 61.7095 136.672 60.6771 136.212C58.164 135.09 56.2082 131.922 55.3114 127.52C54.2629 122.39 54.6298 115.928 56.3703 108.833L56.3713 108.834Z" stroke="#41E0FD"/>
<path d="M156.09 76.2C161.19 86.9667 167.65 96.3733 175.47 104.42C183.29 112.467 191.053 117.68 198.76 120.06C198.76 124.82 197.513 128.503 195.02 131.11C192.527 133.717 188.957 135.02 184.31 135.02C178.303 135.02 171.447 131.167 163.74 123.46C156.033 115.64 149.29 106.46 143.51 95.92C137.843 85.2667 134.5 75.9167 133.48 67.87C141.64 67.87 148.327 65.7167 153.54 61.41C158.867 56.99 161.53 50.7567 161.53 42.71C161.53 32.51 155.183 27.41 142.49 27.41C138.41 27.41 133.423 28.09 127.53 29.45C126.737 44.75 126.34 57.1033 126.34 66.51C126.34 96.6567 127.53 118.473 129.91 131.96C126.283 133.32 122.43 134 118.35 134C114.27 134 110.7 132.697 107.64 130.09C104.693 127.483 103.22 124.027 103.22 119.72C103.22 115.413 103.787 107.933 104.92 97.28C106.053 86.5133 106.62 77.9 106.62 71.44C106.62 51.6067 105.203 33.9833 102.37 18.57C117.67 14.3767 132.233 12.28 146.06 12.28C171.333 12.28 183.97 21.29 183.97 39.31C183.97 47.2433 181.25 54.7233 175.81 61.75C170.483 68.6633 163.91 73.48 156.09 76.2Z" stroke="#41E0FD"/>
</svg>
